<?xml version="1.0"?><svg id="Capa_1" style="enable-background:new 0 0 512 512;" version="1.1" viewBox="0 0 512 512" xml:space="preserve" xmlns="http://www.w3.org/2000/svg" xmlns:xlink="http://www.w3.org/1999/xlink"><style type="text/css">
	.st0{fill:#DDB484;}
	.st1{fill:#B18974;}
	.st2{fill:#FFDC8C;}
	.st3{fill:#464C54;}
</style><g><g><polygon class="st0" points="32.7,145.8 32.7,384.1 248.9,481.9 248.9,237.3   "/></g><g><polygon class="st1" points="483.5,142.5 483.5,380.7 261.9,478.6 263.8,238.1   "/></g><g><polygon class="st1" points="38.9,134.4 256.9,26 478,132.2 256.9,231   "/></g><g><g><path class="st2" d="M105.1,161.1l0.4,106.5c0,3.3,4,5,6.4,2.7l26.5-25.6l25.3,51.3c1.8,3.6,7.2,2.3,7.2-1.7V191.7L105.1,161.1z"/></g></g><g><polygon class="st2" points="322.7,57.8 105.1,161.1 170.9,194.8 386.7,90.6   "/></g></g><path class="st3" d="M312.9,43.8l-56.7-27.1L19.9,130.6v254.4L256.9,495L494,384.9V130.3L312.9,43.8z M327.7,68.6l48,23.2l-197.9,94  l-15.6-7.2l-37.1-18L327.7,68.6z M162.9,205.6v70.8l-15.2-30.8c-1.6-3.3-4.8-5.6-8.4-6.3c-0.7-0.1-1.3-0.2-2-0.2c-3,0-5.9,1.1-8,3.2  l-15.9,15.4l-0.3-74.5L162.9,205.6z M256.2,34.4l53.1,25.4l-204.1,95.9c-1,0.3-1.9,0.7-2.8,1.3c0,0-0.1,0.1-0.1,0.1l-2.3,1.1  l-49.8-21.6L256.2,34.4z M247.5,470L35.8,374.7V148.7l61.3,27.4l0.3,92c0,4.6,2.8,8.8,7.1,10.6c4.3,1.8,9.2,0.9,12.5-2.3l19-18.3  l20.9,42.3c2,4,6,6.5,10.3,6.5c0.9,0,1.8-0.1,2.7-0.3c5.3-1.2,8.9-5.9,8.9-11.3v-82.6l68.6,30.7V470z M256.9,228.7L190,201  l204.3-100.6l71.1,34L256.9,228.7z M478,374.7L266.3,470V243.4L478,148.7V374.7z"/></svg>